<mxfile host="Electron" agent="Mozilla/5.0 (Windows NT 10.0; Win64; x64) AppleWebKit/537.36 (KHTML, like Gecko) draw.io/26.2.15 Chrome/134.0.6998.205 Electron/35.2.1 Safari/537.36" version="26.2.15">
  <diagram name="第 1 页" id="AA8vn3BjW_Uy4Ii3f94p">
    <mxGraphModel dx="1200" dy="815" grid="1" gridSize="10" guides="1" tooltips="1" connect="1" arrows="1" fold="1" page="1" pageScale="1" pageWidth="827" pageHeight="1169" math="0" shadow="0">
      <root>
        <mxCell id="0" />
        <mxCell id="1" parent="0" />
        <mxCell id="W578A53aLUSvLNp2ey-M-1" value="用户" style="swimlane;fontStyle=1;align=center;verticalAlign=top;childLayout=stackLayout;horizontal=1;startSize=38.857142857142854;horizontalStack=0;resizeParent=1;resizeParentMax=0;resizeLast=0;collapsible=0;marginBottom=0;labelBackgroundColor=none;fillColor=#B2C9AB;strokeColor=#788AA3;fontColor=#46495D;" vertex="1" parent="1">
          <mxGeometry x="20" y="177" width="96" height="135.85714285714286" as="geometry" />
        </mxCell>
        <mxCell id="W578A53aLUSvLNp2ey-M-2" value="+姓名" style="text;strokeColor=none;fillColor=none;align=left;verticalAlign=top;spacingLeft=4;spacingRight=4;overflow=hidden;rotatable=0;points=[[0,0.5],[1,0.5]];portConstraint=eastwest;labelBackgroundColor=none;fontColor=#46495D;" vertex="1" parent="W578A53aLUSvLNp2ey-M-1">
          <mxGeometry y="38.857142857142854" width="96" height="39" as="geometry" />
        </mxCell>
        <mxCell id="W578A53aLUSvLNp2ey-M-3" value="+手机号" style="text;strokeColor=none;fillColor=none;align=left;verticalAlign=top;spacingLeft=4;spacingRight=4;overflow=hidden;rotatable=0;points=[[0,0.5],[1,0.5]];portConstraint=eastwest;labelBackgroundColor=none;fontColor=#46495D;" vertex="1" parent="W578A53aLUSvLNp2ey-M-1">
          <mxGeometry y="77.85714285714286" width="96" height="39" as="geometry" />
        </mxCell>
        <mxCell id="W578A53aLUSvLNp2ey-M-4" style="line;strokeWidth=1;fillColor=none;align=left;verticalAlign=middle;spacingTop=-1;spacingLeft=3;spacingRight=3;rotatable=0;labelPosition=right;points=[];portConstraint=eastwest;strokeColor=#788AA3;labelBackgroundColor=none;fontColor=#46495D;" vertex="1" parent="W578A53aLUSvLNp2ey-M-1">
          <mxGeometry y="116.85714285714286" width="96" height="19" as="geometry" />
        </mxCell>
        <mxCell id="W578A53aLUSvLNp2ey-M-5" value="车辆" style="swimlane;fontStyle=1;align=center;verticalAlign=top;childLayout=stackLayout;horizontal=1;startSize=44.8;horizontalStack=0;resizeParent=1;resizeParentMax=0;resizeLast=0;collapsible=0;marginBottom=0;labelBackgroundColor=none;fillColor=#B2C9AB;strokeColor=#788AA3;fontColor=#46495D;" vertex="1" parent="1">
          <mxGeometry x="20" y="393" width="96" height="111.8" as="geometry" />
        </mxCell>
        <mxCell id="W578A53aLUSvLNp2ey-M-6" value="+车牌号" style="text;strokeColor=none;fillColor=none;align=left;verticalAlign=top;spacingLeft=4;spacingRight=4;overflow=hidden;rotatable=0;points=[[0,0.5],[1,0.5]];portConstraint=eastwest;labelBackgroundColor=none;fontColor=#46495D;" vertex="1" parent="W578A53aLUSvLNp2ey-M-5">
          <mxGeometry y="44.8" width="96" height="45" as="geometry" />
        </mxCell>
        <mxCell id="W578A53aLUSvLNp2ey-M-7" style="line;strokeWidth=1;fillColor=none;align=left;verticalAlign=middle;spacingTop=-1;spacingLeft=3;spacingRight=3;rotatable=0;labelPosition=right;points=[];portConstraint=eastwest;strokeColor=#788AA3;labelBackgroundColor=none;fontColor=#46495D;" vertex="1" parent="W578A53aLUSvLNp2ey-M-5">
          <mxGeometry y="89.8" width="96" height="22" as="geometry" />
        </mxCell>
        <mxCell id="W578A53aLUSvLNp2ey-M-8" value="管理员" style="swimlane;fontStyle=1;align=center;verticalAlign=top;childLayout=stackLayout;horizontal=1;startSize=38;horizontalStack=0;resizeParent=1;resizeParentMax=0;resizeLast=0;collapsible=0;marginBottom=0;labelBackgroundColor=none;fillColor=#B2C9AB;strokeColor=#788AA3;fontColor=#46495D;" vertex="1" parent="1">
          <mxGeometry x="99" y="20" width="72" height="57" as="geometry" />
        </mxCell>
        <mxCell id="W578A53aLUSvLNp2ey-M-9" style="line;strokeWidth=1;fillColor=none;align=left;verticalAlign=middle;spacingTop=-1;spacingLeft=3;spacingRight=3;rotatable=0;labelPosition=right;points=[];portConstraint=eastwest;strokeColor=#788AA3;labelBackgroundColor=none;fontColor=#46495D;" vertex="1" parent="W578A53aLUSvLNp2ey-M-8">
          <mxGeometry y="38" width="72" height="19" as="geometry" />
        </mxCell>
        <mxCell id="W578A53aLUSvLNp2ey-M-10" value="黑名单" style="swimlane;fontStyle=1;align=center;verticalAlign=top;childLayout=stackLayout;horizontal=1;startSize=38;horizontalStack=0;resizeParent=1;resizeParentMax=0;resizeLast=0;collapsible=0;marginBottom=0;labelBackgroundColor=none;fillColor=#B2C9AB;strokeColor=#788AA3;fontColor=#46495D;" vertex="1" parent="1">
          <mxGeometry x="166" y="207" width="72" height="57" as="geometry" />
        </mxCell>
        <mxCell id="W578A53aLUSvLNp2ey-M-11" style="line;strokeWidth=1;fillColor=none;align=left;verticalAlign=middle;spacingTop=-1;spacingLeft=3;spacingRight=3;rotatable=0;labelPosition=right;points=[];portConstraint=eastwest;strokeColor=#788AA3;labelBackgroundColor=none;fontColor=#46495D;" vertex="1" parent="W578A53aLUSvLNp2ey-M-10">
          <mxGeometry y="38" width="72" height="19" as="geometry" />
        </mxCell>
        <mxCell id="W578A53aLUSvLNp2ey-M-12" value="绑定" style="curved=1;startArrow=none;endArrow=open;endSize=12;exitX=0.5;exitY=1;entryX=0.5;entryY=0;rounded=0;labelBackgroundColor=none;strokeColor=#788AA3;fontColor=default;" edge="1" parent="1" source="W578A53aLUSvLNp2ey-M-1" target="W578A53aLUSvLNp2ey-M-5">
          <mxGeometry relative="1" as="geometry">
            <Array as="points" />
          </mxGeometry>
        </mxCell>
        <mxCell id="W578A53aLUSvLNp2ey-M-13" value="1" style="edgeLabel;resizable=0;labelBackgroundColor=none;fontSize=12;align=right;verticalAlign=top;fontColor=#46495D;" vertex="1" parent="W578A53aLUSvLNp2ey-M-12">
          <mxGeometry x="-1" relative="1" as="geometry" />
        </mxCell>
        <mxCell id="W578A53aLUSvLNp2ey-M-14" value="1..*" style="edgeLabel;resizable=0;labelBackgroundColor=none;fontSize=12;align=left;verticalAlign=bottom;fontColor=#46495D;" vertex="1" parent="W578A53aLUSvLNp2ey-M-12">
          <mxGeometry x="1" relative="1" as="geometry" />
        </mxCell>
        <mxCell id="W578A53aLUSvLNp2ey-M-15" value="管理信息" style="curved=1;startArrow=none;endArrow=open;endSize=12;exitX=0;exitY=1;entryX=0.5;entryY=0;rounded=0;labelBackgroundColor=none;strokeColor=#788AA3;fontColor=default;" edge="1" parent="1" source="W578A53aLUSvLNp2ey-M-8" target="W578A53aLUSvLNp2ey-M-1">
          <mxGeometry relative="1" as="geometry">
            <Array as="points">
              <mxPoint x="68" y="140" />
            </Array>
          </mxGeometry>
        </mxCell>
        <mxCell id="W578A53aLUSvLNp2ey-M-16" value="1" style="edgeLabel;resizable=0;labelBackgroundColor=none;fontSize=12;align=right;verticalAlign=top;fontColor=#46495D;" vertex="1" parent="W578A53aLUSvLNp2ey-M-15">
          <mxGeometry x="-1" relative="1" as="geometry" />
        </mxCell>
        <mxCell id="W578A53aLUSvLNp2ey-M-17" value="1..*" style="edgeLabel;resizable=0;labelBackgroundColor=none;fontSize=12;align=left;verticalAlign=bottom;fontColor=#46495D;" vertex="1" parent="W578A53aLUSvLNp2ey-M-15">
          <mxGeometry x="1" relative="1" as="geometry" />
        </mxCell>
        <mxCell id="W578A53aLUSvLNp2ey-M-18" value="维护" style="curved=1;startArrow=none;endArrow=open;endSize=12;exitX=1;exitY=1;entryX=0.51;entryY=0;rounded=0;labelBackgroundColor=none;strokeColor=#788AA3;fontColor=default;" edge="1" parent="1" source="W578A53aLUSvLNp2ey-M-8" target="W578A53aLUSvLNp2ey-M-10">
          <mxGeometry relative="1" as="geometry">
            <Array as="points">
              <mxPoint x="202" y="140" />
            </Array>
          </mxGeometry>
        </mxCell>
        <mxCell id="W578A53aLUSvLNp2ey-M-19" value="1" style="edgeLabel;resizable=0;labelBackgroundColor=none;fontSize=12;align=right;verticalAlign=top;fontColor=#46495D;" vertex="1" parent="W578A53aLUSvLNp2ey-M-18">
          <mxGeometry x="-1" relative="1" as="geometry" />
        </mxCell>
        <mxCell id="W578A53aLUSvLNp2ey-M-20" value="0..*" style="edgeLabel;resizable=0;labelBackgroundColor=none;fontSize=12;align=left;verticalAlign=bottom;fontColor=#46495D;" vertex="1" parent="W578A53aLUSvLNp2ey-M-18">
          <mxGeometry x="1" relative="1" as="geometry" />
        </mxCell>
      </root>
    </mxGraphModel>
  </diagram>
</mxfile>
